<svg width="136" height="32" viewBox="0 0 136 32" fill="none" xmlns="http://www.w3.org/2000/svg">
<path d="M48.3159 24.4102C52.3047 24.4102 55.1758 21.8364 55.1963 18.2373H51.0435C50.9102 19.7959 49.813 20.8315 48.3262 20.8315C46.501 20.8315 45.3936 19.2217 45.3936 16.5864C45.3936 13.9614 46.501 12.3721 48.3159 12.3721C49.813 12.3721 50.9102 13.418 51.0229 14.9458H55.1758C55.1655 11.4287 52.2227 8.79346 48.3159 8.79346C43.7427 8.79346 40.9639 11.7466 40.9639 16.5967C40.9639 21.4468 43.7529 24.4102 48.3159 24.4102ZM60.5488 24.1641C61.9946 24.1641 63.2559 23.5591 63.6968 22.6465H63.9019V24H68.0034V16.1558C68.0034 13.6333 66.127 12.1875 62.8354 12.1875C59.5234 12.1875 57.4214 13.623 57.2778 15.9814H60.9897C61.2256 15.4482 61.7485 15.1919 62.5791 15.1919C63.3892 15.1919 63.8813 15.561 63.8813 16.1558V17.0068L61.605 17.1401C58.5493 17.3145 56.8779 18.5552 56.8779 20.6572C56.8779 22.7695 58.3442 24.1641 60.5488 24.1641ZM62.1895 21.334C61.3896 21.334 60.8872 20.9443 60.8872 20.3394C60.8872 19.7754 61.3999 19.4062 62.2817 19.3447L63.8813 19.2319V19.9087C63.8813 20.7085 63.1328 21.334 62.1895 21.334ZM71.5718 9.94189V12.6797H69.8389V15.7456H71.5718V20.7905C71.5718 23.0669 72.8433 24 76.063 24C76.8628 24 77.6216 23.9282 78.0215 23.8462V20.9238C77.7754 20.9546 77.5293 20.9751 77.0781 20.9751C76.1963 20.9751 75.7759 20.5957 75.7759 19.8677V15.7456H78.0215V12.6797H75.7759V9.94189H71.5718ZM85.7939 24.2871C89.6084 24.2871 91.8335 22.062 91.8335 18.2271C91.8335 14.4741 89.5469 12.1875 85.7939 12.1875C82.0615 12.1875 79.7544 14.4946 79.7544 18.2271C79.7544 22.0518 81.9897 24.2871 85.7939 24.2871ZM85.7939 21.1494C84.6968 21.1494 84.061 20.0933 84.061 18.2373C84.061 16.4326 84.7173 15.3252 85.7939 15.3252C86.8706 15.3252 87.5269 16.4326 87.5269 18.2373C87.5269 20.083 86.8911 21.1494 85.7939 21.1494ZM101.605 12.3105C100.006 12.3105 98.7651 13.0693 98.2422 14.3408H98.0371V12.4746H93.9355V27.7939H98.1396V22.2158H98.3447C98.8472 23.436 100.047 24.1641 101.708 24.1641C104.569 24.1641 106.189 22.0415 106.189 18.2373C106.189 14.4229 104.507 12.3105 101.605 12.3105ZM100.006 20.9238C98.8267 20.9238 98.1294 19.9395 98.1191 18.2476C98.1294 16.5659 98.8369 15.5508 100.006 15.5508C101.175 15.5508 101.882 16.5762 101.882 18.2373C101.882 19.9189 101.185 20.9238 100.006 20.9238ZM110.393 11.1416C111.572 11.1416 112.536 10.2188 112.536 9.0498C112.536 7.87061 111.572 6.94775 110.393 6.94775C109.224 6.94775 108.25 7.87061 108.25 9.0498C108.25 10.2188 109.224 11.1416 110.393 11.1416ZM108.291 24H112.495V12.4746H108.291V24ZM118.278 24.1641C119.724 24.1641 120.985 23.5591 121.426 22.6465H121.631V24H125.733V16.1558C125.733 13.6333 123.856 12.1875 120.565 12.1875C117.253 12.1875 115.151 13.623 115.007 15.9814H118.719C118.955 15.4482 119.478 15.1919 120.309 15.1919C121.119 15.1919 121.611 15.561 121.611 16.1558V17.0068L119.334 17.1401C116.279 17.3145 114.607 18.5552 114.607 20.6572C114.607 22.7695 116.074 24.1641 118.278 24.1641ZM119.919 21.334C119.119 21.334 118.617 20.9443 118.617 20.3394C118.617 19.7754 119.129 19.4062 120.011 19.3447L121.611 19.2319V19.9087C121.611 20.7085 120.862 21.334 119.919 21.334ZM128.973 9.20361L129.342 19.1704H133.116L133.485 9.20361H128.973ZM131.229 24.4102C132.706 24.4102 133.536 23.6924 133.536 22.4106C133.536 21.1187 132.706 20.4009 131.229 20.4009C129.752 20.4009 128.922 21.1187 128.922 22.4106C128.922 23.6924 129.752 24.4102 131.229 24.4102Z" fill="white"/>
<path fill-rule="evenodd" clip-rule="evenodd" d="M16.0066 5.78926C22.1094 6.29821 23.8801 8.84294 25.9987 12.0557C27.4041 14.1869 32.0759 14.1869 31.9434 10.9423C31.7536 6.29821 25.809 2.7076e-06 16.0066 0C2.05076 -3.85463e-06 -5.00003 16.5 4.50001 27C4.92185 27.3343 5.30768 22.3528 5 21.692C1.01581 13.1353 7.5 5.07985 16.0066 5.78926ZM9.20818 14.1869C8.14345 15.3318 6.80502 23.3479 6.17261 28.4374C7.47961 29.6673 11.371 32.0891 16.4809 31.9364C21.5908 31.7837 25.3557 28.9039 26.5995 27.4831C25.809 22.7117 24.1647 14.5368 23.3426 14.1869C22.4834 13.8212 20.9921 15.6713 20.7813 16.7952C20.7045 16.7686 20.6169 16.7368 20.5189 16.7012C19.7567 16.4241 18.3637 15.9179 16.4809 15.8728C14.356 15.8219 12.4757 16.5196 11.9908 16.7952C11.7378 15.3956 10.1252 13.2008 9.20818 14.1869ZM19.0489 19.5944C19.8544 19.5944 20.3578 20.2872 20.4921 21.0704C20.6264 21.8535 20.3914 22.7271 19.7201 22.8776C19.0489 23.0283 18.344 22.4861 18.1762 21.5222C18.0084 20.5583 18.2433 19.5944 19.0489 19.5944ZM13.4167 19.9125C12.6747 19.9125 12.2111 20.552 12.0874 21.2749C11.9637 21.9979 12.1801 22.8042 12.7984 22.9432C13.4167 23.0822 14.0659 22.5818 14.2205 21.692C14.375 20.8023 14.1586 19.9125 13.4167 19.9125ZM17.9251 23.8238C17.767 23.5693 15.2374 23.6011 14.8263 24.0783C14.5101 24.5554 15.6801 25.6369 16.5022 25.6051C17.3244 25.5733 18.0832 24.0782 17.9251 23.8238Z" fill="white"/>
</svg>
