<svg width="518" height="482" viewBox="0 0 518 482" fill="none" xmlns="http://www.w3.org/2000/svg">
<path d="M318.222 137.193C278.127 136.097 214.073 167.584 180.337 209.638C128.627 274.092 78.9124 242.5 30.805 286.151C-5.58107 319.176 -16.9916 390.489 37.1266 427.476C91.2448 464.462 184.741 424.773 240.003 447.183C295.264 469.593 344.752 487.984 400.961 479.518C465.499 469.82 522.462 411.529 511.937 307.36C498.477 174.095 403.801 139.527 318.222 137.193Z" fill="#C5DFFF"/>
<path d="M472.247 330.755C472.247 330.755 505.905 345.611 507.88 374.479C509.634 400.124 496.138 426.448 472.247 438.749C444.954 452.772 433.101 429.44 441.741 414.69C450.38 399.94 498.435 377.287 465.768 348.282C465.768 335.886 472.247 330.755 472.247 330.755Z" fill="#FF8D76"/>
<path opacity="0.58" d="M129.965 327.299C118.033 326.045 96.0491 326.567 84.1856 329.649C73.3757 332.457 63.1136 344.926 79.4444 350.721C95.7752 356.516 82.189 363.622 60.4796 364.66C38.7702 365.698 29.0349 380.011 44.3121 387.95C59.5893 395.889 90.7337 396.378 116.542 396.378C142.35 396.378 175.722 392.37 189.814 383.92C203.906 375.47 193.075 367.452 188.181 365.229C183.287 363.006 178.541 362.484 179.874 359.002C181.206 355.52 187.249 345.374 178.341 337.54C163.248 324.296 142.75 328.648 129.965 327.299Z" fill="#99ADF9"/>
<path d="M246.43 311.964C246.43 311.964 245.408 334.3 243.564 336.961C241.72 339.621 225.126 344.236 224.209 349.462C223.292 354.687 223.393 363.806 231.79 365.445C240.187 367.083 258.13 366.677 262.729 366.498C267.328 366.319 276.863 353.381 281.061 323.875C256.065 312.459 246.43 311.964 246.43 311.964Z" fill="#FF8D76"/>
<path d="M290.022 32.4492C290.022 32.4492 277.469 8.55357 268.697 3.02217C259.926 -2.50923 254.116 0.187982 251.961 5.99332C249.806 11.7987 249.258 35.1464 249.258 35.1464C249.258 35.1464 224.962 57.6882 215.786 82.6585C206.609 107.629 204.58 158.249 262.486 164.987C320.392 171.725 380.058 152.581 405.576 135.302C397.2 93.0523 385.32 37.9806 382.618 22.7508C379.915 7.52104 371.555 -0.0332761 362.373 0.0194039C353.191 0.0720839 341.833 21.3811 338.346 34.3404C314.187 31.501 290.022 32.4492 290.022 32.4492Z" fill="#FEC272"/>
<path opacity="0.3" d="M344.799 35.6416C344.799 35.6416 352.79 9.85997 359.744 9.99694C365.971 10.1181 368.853 29.4885 369.374 39.0289C369.392 39.3679 369.332 39.7065 369.198 40.0185C369.064 40.3304 368.86 40.6072 368.602 40.8274C368.343 41.0476 368.037 41.2052 367.708 41.288C367.379 41.3707 367.035 41.3765 366.703 41.3047C358.211 39.4925 344.799 35.6416 344.799 35.6416Z" fill="white"/>
<path opacity="0.3" d="M249.116 35.236C249.116 35.236 248.463 8.04789 254.247 6.01445C260.121 3.94412 269.524 21.1389 273.328 29.9206C273.461 30.2328 273.521 30.5716 273.503 30.9107C273.485 31.2498 273.388 31.5801 273.222 31.876C273.055 32.172 272.823 32.4256 272.542 32.6173C272.262 32.8089 271.941 32.9335 271.605 32.9813C263.018 34.214 249.116 35.236 249.116 35.236Z" fill="white"/>
<path d="M405.576 135.302C409.695 151.906 434.191 196.042 449.174 220.343C464.156 244.644 477.389 275.13 476.567 313.655C475.745 352.18 461.216 362.7 441.082 368.548C420.948 374.395 408.536 372.762 396.831 374.311C385.125 375.86 372.898 380.88 364.975 374.311C357.052 367.742 352.917 363.87 344.098 368.458C335.279 373.047 312.875 371.787 307.027 370.26C301.18 368.732 298.298 357.032 308.081 351C292.061 356.131 251.186 351.432 241.398 311.859C233.57 280.135 257.202 214.548 262.47 199.555C267.86 184.173 270.299 175.66 267.328 161.758C286.919 156.226 405.576 135.302 405.576 135.302Z" fill="#FEC272"/>
<path d="M422.302 173.057C422.302 173.057 401.177 196.068 405.576 219.532C408.631 235.894 428.792 244.908 430.952 258.947C433.112 272.986 448.505 296.35 474.418 284.276C471.168 244.096 422.302 173.057 422.302 173.057Z" fill="#FF8D76"/>
<g style="mix-blend-mode:multiply" opacity="0.19">
<path d="M457.671 233.334C457.671 233.334 474.971 338.831 409.627 373.405C455.111 400.983 517.063 317.564 517.063 317.564L457.671 233.334Z" fill="#FF97C9"/>
</g>
<path d="M361.746 324.908C361.746 324.908 362.8 347.492 382.439 351.184C379.921 356.31 362.015 352.891 361.203 370.797C357.874 368.764 353.733 363.87 344.104 368.458C357.152 346.501 361.746 324.908 361.746 324.908Z" fill="#FF8D76"/>
<path opacity="0.3" d="M261.233 186.022C261.233 186.022 267.955 180.048 287.573 182.861C307.191 185.674 332.135 242.121 328.942 275.847C325.75 309.573 329.933 348.514 298.73 355.841C267.617 367.921 200.651 321.973 200.651 321.973L261.233 186.022Z" fill="white"/>
<path d="M328.242 239.218C328.273 258.768 326.498 278.244 324.596 297.693C323.653 307.365 322.794 317.069 321.067 326.667C319.792 333.716 318.248 346.354 309.166 347.523C306.184 347.908 306.142 352.654 309.166 352.264C318.269 351.09 322.336 342.892 324.233 334.801C326.609 324.665 327.704 314.256 328.732 303.904C330.839 282.416 333.014 260.88 332.983 239.255C332.983 236.205 328.242 236.2 328.242 239.255V239.218Z" fill="#FF8D76"/>
<path d="M368.552 277.195C367.072 292.615 363.769 307.787 359.544 322.674C357.437 330.002 355.156 337.266 352.727 344.483C351.516 348.09 350.276 351.69 349.008 355.283C347.781 358.77 346.595 362.331 344.056 365.113C342.002 367.362 345.347 370.723 347.407 368.463C352.401 362.995 354.176 354.94 356.504 348.097C359.138 340.417 361.604 332.688 363.843 324.886C368.321 309.277 371.745 293.373 373.294 277.195C373.589 274.161 368.842 274.182 368.552 277.195Z" fill="#FF8D76"/>
<path d="M392.653 273.824C385.278 277.364 378.303 283.512 372.877 289.58C367.451 295.649 364.285 303.119 362.505 310.974C360.724 318.828 359.049 327.995 362.12 335.733C364.712 342.26 369.964 347.502 376.128 350.752C384.593 355.22 394.366 356.052 403.779 355.91C406.824 355.868 406.835 351.126 403.779 351.168C394.339 351.311 384.346 350.536 376.186 345.3C368.463 340.343 364.638 332.657 365.334 323.527C366.029 314.398 368.136 304.562 373.236 296.808C375.87 292.788 379.468 289.549 383.06 286.404C386.774 283.148 390.562 280.082 395.035 277.922C397.784 276.6 395.382 272.512 392.643 273.829L392.653 273.824Z" fill="#FF8D76"/>
<path d="M384.82 350.199C378.704 352.57 372.335 354.635 366.382 357.395C364.14 358.406 362.269 360.089 361.026 362.211C359.783 364.332 359.23 366.788 359.444 369.238C359.713 372.251 364.454 372.277 364.185 369.238C363.711 363.928 367.388 362.015 371.697 360.345L386.084 354.772C388.903 353.681 387.665 349.093 384.825 350.199H384.82Z" fill="#FF8D76"/>
<path d="M309.172 359.26C307.8 362.181 307.218 365.411 307.486 368.627C307.765 371.64 312.506 371.672 312.227 368.627C311.961 366.249 312.324 363.844 313.281 361.652C313.807 360.477 313.612 359.118 312.432 358.412C311.421 357.806 309.714 358.096 309.187 359.26H309.172Z" fill="#FF8D76"/>
<path d="M324.902 359.545C323.274 362.668 323.148 366.045 323.253 369.496C323.342 372.541 328.084 372.551 327.994 369.496C327.915 366.946 327.783 364.27 328.995 361.942C330.402 359.234 326.314 356.837 324.902 359.545Z" fill="#FF8D76"/>
<path d="M268.16 166.383C268.16 166.383 341.585 172.557 405.565 135.302C409.032 145.311 413.757 155.952 413.757 155.952C413.757 155.952 350.109 194.583 267.228 184.273C264.251 179.363 268.16 166.383 268.16 166.383Z" fill="#738DE0"/>
<path d="M236.573 86.0774C238.438 84.4444 254.252 84.0545 255.917 85.0923C257.582 86.1301 255.738 97.3299 246.245 97.3299C236.752 97.3299 235.13 87.3418 236.573 86.0774Z" fill="#1C3177"/>
<path d="M304.599 86.0774C306.469 84.4444 322.283 84.0545 323.948 85.0923C325.613 86.1301 323.769 97.3299 314.276 97.3299C304.783 97.3299 303.161 87.3418 304.599 86.0774Z" fill="#1C3177"/>
<path d="M270.678 131.798C270.678 131.798 275.625 119.292 278.58 119.561C281.536 119.83 288.315 131.798 288.315 131.798" stroke="#1C3177" stroke-width="9" stroke-miterlimit="10" stroke-linecap="round"/>
<path d="M202.826 110.679C209.124 110.437 215.431 110.542 221.717 110.995C224.762 111.216 224.752 106.475 221.717 106.254C215.431 105.801 209.124 105.695 202.826 105.938C199.787 106.054 199.771 110.795 202.826 110.679Z" fill="#FF8D76"/>
<path d="M204.939 134.085C210.181 131.736 215.544 129.666 221.006 127.884C223.893 126.941 222.66 122.364 219.747 123.317C213.9 125.236 208.159 127.462 202.547 129.986C199.771 131.235 202.178 135.323 204.939 134.085V134.085Z" fill="#FF8D76"/>
<path d="M334.353 111.606C339.558 108.462 345.007 105.738 350.646 103.462C353.444 102.34 352.227 97.7566 349.387 98.8892C343.358 101.295 337.531 104.178 331.961 107.513C329.327 109.093 331.729 113.181 334.353 111.606V111.606Z" fill="#FF8D76"/>
<path d="M336.18 124.86C341.575 125.182 346.948 125.724 352.295 126.52C355.277 126.962 356.568 122.395 353.554 121.947C347.76 121.089 341.996 120.467 336.17 120.119C333.12 119.935 333.13 124.676 336.17 124.86H336.18Z" fill="#FF8D76"/>
<path d="M275.646 33.5924C280.006 33.1186 284.397 32.9759 288.779 33.1657C291.829 33.2974 291.824 28.5562 288.779 28.4245C284.397 28.2347 280.006 28.3774 275.646 28.8512C272.648 29.1778 272.611 33.9243 275.646 33.5924Z" fill="#FF8D76"/>
<path d="M340.368 35.4784C343.524 35.533 346.642 36.178 349.561 37.3801C352.39 38.518 353.617 33.9348 350.82 32.8075C347.495 31.4748 343.951 30.7727 340.368 30.7372C337.318 30.6898 337.318 35.431 340.368 35.4784Z" fill="#FF8D76"/>
<path d="M270.678 210.081C278.778 210.081 285.344 203.935 285.344 196.353C285.344 188.771 278.778 182.624 270.678 182.624C262.578 182.624 256.012 188.771 256.012 196.353C256.012 203.935 262.578 210.081 270.678 210.081Z" fill="#FFD3B3"/>
<path d="M275.713 196.012C275.988 193.974 273.245 191.921 269.586 191.427C265.927 190.933 262.738 192.185 262.463 194.223C262.187 196.262 264.93 198.315 268.589 198.809C272.248 199.303 275.437 198.051 275.713 196.012Z" fill="#1C3177"/>
<path d="M269.098 195.594C267.184 200.61 266.596 206.035 267.391 211.345" stroke="#1C3177" stroke-width="7" stroke-miterlimit="10"/>
<path d="M73.165 377.277L106.986 415.506L125.355 407.552L112.069 400.925L116.252 382.234L73.165 377.277Z" fill="#738DE0"/>
<path d="M142.329 382.65L157.358 368.806L165.466 384.03L142.329 382.65Z" fill="#738DE0"/>
<path d="M99.2573 298.415L195.325 308.903C195.325 308.903 205.908 333.826 194.487 351.627L121.262 356.189L126.804 340.564L114.545 336.413L124.186 314.972L99.2573 298.415Z" fill="#738DE0"/>
</svg>
