<svg width="40" height="40" viewBox="0 0 40 40" fill="none" xmlns="http://www.w3.org/2000/svg">
<path fill-rule="evenodd" clip-rule="evenodd" d="M26.8333 16.6667C26.8333 22.2816 22.2816 26.8333 16.6667 26.8333C11.0518 26.8333 6.5 22.2816 6.5 16.6667C6.5 11.0518 11.0518 6.5 16.6667 6.5C22.2816 6.5 26.8333 11.0518 26.8333 16.6667ZM24.369 25.4296C22.3142 27.2371 19.6184 28.3333 16.6667 28.3333C10.2233 28.3333 5 23.11 5 16.6667C5 10.2233 10.2233 5 16.6667 5C23.11 5 28.3333 10.2233 28.3333 16.6667C28.3333 19.6184 27.2371 22.3142 25.4296 24.369L31.3637 30.303L30.303 31.3637L24.369 25.4296Z" fill="#364141"/>
</svg>
